<svg width="750" height="194" xmlns="http://www.w3.org/2000/svg" data-name="Capa 1">

 <g>
  <title>Layer 1</title>
  <path transform="rotate(-0.0114346 350.845 106.692)" stroke="null" id="svg_1" fill="#ffffff" d="m151.76945,122.69844a41.78956,35.8343 0 0 1 -16.20411,-2.69854a40.51881,34.74464 0 0 1 -25.23578,-32.42638a39.50393,33.87438 0 0 1 3.25788,-13.76329a40.08386,34.37167 0 0 1 9.04019,-11.11594a41.35461,35.46133 0 0 1 13.54323,-7.40819a44.3481,38.02823 0 0 1 16.61348,-2.64735a45.25212,38.80342 0 0 1 18.5665,3.17389a38.06261,32.63846 0 0 1 13.86731,8.77575l-12.0081,10.28225a24.97139,21.41282 0 0 0 -8.98049,-6.3551a26.74532,22.93395 0 0 0 -11.67549,-2.12081a25.01404,21.44939 0 0 0 -12.45158,2.6766a21.9779,18.84591 0 0 0 -8.58818,7.38625a26.19097,22.4586 0 0 0 -3.08731,11.11594a26.86472,23.03633 0 0 0 3.03614,11.15982a22.25934,19.08725 0 0 0 8.29821,7.51058a23.27423,19.95751 0 0 0 12.1275,2.69123a24.64731,21.13492 0 0 0 11.83753,-2.25975a18.07185,15.4965 0 0 0 7.51359,-6.54524a25.75601,22.08563 0 0 0 2.6353,-10.44314l11.67549,6.73538l-35.35055,-0.48267l0,-12.79065l41.63605,0l0,2.19394q0,12.22023 -5.11709,20.54987a34.54888,29.62546 0 0 1 -14.13169,12.57126a42.70211,36.6168 0 0 1 -20.81802,4.2343zm73.40464,0a27.84549,23.87734 0 0 1 -13.30443,-2.64735a22.7284,19.48947 0 0 1 -9.03166,-7.31312a23.87975,20.47674 0 0 1 -3.25788,-10.7576l0,-27.10974l17.16783,0l0,26.94154a11.27465,9.66795 0 0 0 0.95519,4.13923a7.00188,6.00407 0 0 0 2.86557,2.69123a8.90373,7.6349 0 0 0 4.60538,0.96533a7.88032,6.75732 0 0 0 6.05522,-2.06961c1.49248,-1.38218 2.24299,-3.28359 2.24299,-5.72617l0,-26.94154l17.16783,0l0,27.05855a24.17824,20.7327 0 0 1 -3.24935,10.83073a22.93309,19.66498 0 0 1 -8.98049,7.31312a27.47877,23.56288 0 0 1 -13.2362,2.62541zm44.8854,-54.27799a8.82698,7.56908 0 0 1 -6.6778,-2.36214a9.84187,8.43934 0 0 1 0,-11.49623a8.92932,7.65684 0 0 1 6.6778,-2.31095a8.75875,7.51058 0 0 1 6.6181,2.31095a9.98685,8.56367 0 0 1 0,11.49623a8.65641,7.42282 0 0 1 -6.6181,2.36214zm-8.64788,53.21759l0,-46.76741l17.17636,0l0,46.76741l-17.17636,0zm24.68995,-34.28391l0,-12.4835l41.86631,0l0,12.4835l-41.86631,0zm12.34924,34.26197l0,-66.08868l17.16783,0l0,66.11062l-17.16783,-0.02194zm58.69301,0.98727a24.7326,21.20805 0 0 1 -13.4153,-3.17389a26.48946,22.71456 0 0 1 -9.3131,-8.67336a30.39551,26.06397 0 0 1 -3.41139,-12.51275a30.37845,26.04934 0 0 1 3.41139,-12.50544a26.43829,22.67068 0 0 1 9.3131,-8.62217a24.7326,21.20805 0 0 1 13.4153,-3.17389a22.609,19.38709 0 0 1 9.93568,1.82828a19.31701,16.56422 0 0 1 7.23215,5.05337a15.82886,13.57315 0 0 1 3.14701,7.36431l0,20.20615a16.13589,13.83643 0 0 1 -3.08731,7.36431a18.76266,16.08887 0 0 1 -7.24068,5.05337a23.0269,19.74543 0 0 1 -9.98685,1.79171zm3.47962,-13.30988a11.47081,9.83615 0 0 0 8.86109,-3.13002a13.09975,11.23295 0 0 0 3.41139,-7.94205a14.43872,12.38111 0 0 0 -1.51807,-5.77005a11.18937,9.59482 0 0 0 -4.26424,-3.89789a13.15945,11.28415 0 0 0 -12.68185,0a11.93987,10.23837 0 0 0 -4.45187,3.91983a14.77986,12.67364 0 0 0 -0.05117,11.45235a11.70108,10.0336 0 0 0 4.37511,3.94177a11.93987,10.23837 0 0 0 6.3196,1.42606zm11.53051,12.34455l0,-12.60782l2.55854,-11.34996l-2.55854,-11.35728l0,-11.45235l16.84375,0l0,46.76741l-16.84375,0zm28.99684,0l0,-46.76741l17.16783,0l0,46.76741l-17.16783,0zm17.16783,-25.69831l-7.18098,-4.81203q2.14065,-8.17607 7.18098,-12.70289c3.41139,-3.01301 8.04236,-4.51951 14.02935,-4.51951a18.69443,16.03036 0 0 1 6.90807,1.00921a13.8929,11.91308 0 0 1 5.2109,3.13002l-10.23418,11.06475a7.44536,6.38436 0 0 0 -2.80587,-1.63083a10.12331,8.68068 0 0 0 -3.81223,-0.57774a8.94638,7.67146 0 0 0 -6.82278,2.25975q-2.49032,2.25975 -2.49032,6.77926l0.01706,0zm-307.98904,64.80157l0,-23.40199l6.06375,0l0,23.40199l-6.06375,0zm11.34288,0l0,-23.40199l4.26424,0l1.80804,4.67308l0,18.71428l-6.07228,0.01463zm18.81383,0l-16.06766,-17.65388l1.50954,-5.73349l16.06766,17.65388l-1.50954,5.73349zm0,0l-1.62041,-4.67308l0,-18.71428l6.06375,0l0,23.40199l-4.44334,-0.01463zm17.3384,0.36566a14.00377,12.00815 0 0 1 -5.77378,-0.94339a13.64557,11.70099 0 0 1 -4.41775,-2.86674l3.94016,-3.34941a9.77364,8.38084 0 0 0 2.91674,2.0038a7.97413,6.83777 0 0 0 3.72695,0.73131a5.39853,4.62921 0 0 0 2.9935,-0.59968a2.18329,1.87216 0 0 0 1.05753,-1.65277a2.4562,2.10618 0 0 0 -0.69081,-1.55769a6.03816,5.17769 0 0 0 -1.83362,-1.02384c-0.76756,-0.29252 -1.60335,-0.56311 -2.5159,-0.8337s-1.81657,-0.56311 -2.72059,-0.90683a11.34288,9.72645 0 0 1 -2.49032,-1.29442a6.82278,5.8505 0 0 1 -1.83362,-1.9526a7.67563,6.58181 0 0 1 3.89752,-9.04633a12.32366,10.56746 0 0 1 4.98063,-0.81176a13.38972,11.4816 0 0 1 5.23649,0.85564a10.79706,9.25841 0 0 1 3.9231,2.35483l-3.94016,3.3421a9.50073,8.14682 0 0 0 -2.49032,-1.62351a6.37078,5.4629 0 0 0 -2.83998,-0.52654a4.59685,3.94177 0 0 0 -2.5159,0.51192a1.93597,1.66008 0 0 0 -0.92108,1.46262a2.18329,1.87216 0 0 0 0.69081,1.46262a6.08081,5.21426 0 0 0 1.83362,0.94339c0.75903,0.26327 1.59483,0.52654 2.5159,0.78982s1.81657,0.57774 2.72059,0.92877a11.54756,9.90197 0 0 1 2.49032,1.3383a7.07011,6.06258 0 0 1 1.83362,2.05499a8.18734,7.0206 0 0 1 0.69934,3.0642a7.41125,6.3551 0 0 1 -2.78028,5.25082c-1.85921,1.27248 -4.41775,1.8941 -7.69269,1.8941zm11.47934,-19.21157l0,-4.54145l23.13777,0l0,4.54145l-23.13777,0zm8.52848,18.84591l0,-23.05096l6.06375,0l0,23.05096l-6.06375,0zm18.00362,0l0,-23.40199l6.06375,0l0,23.40199l-6.06375,0zm4.63949,-9.63869l0,-3.83939l5.7482,0a3.96574,3.4006 0 0 0 2.80587,-0.79713a3.63313,3.11539 0 0 0 0,-4.24161a3.78665,3.24703 0 0 0 -2.78028,-0.82638l-5.77378,0l0,-4.04416l6.48165,0a10.53267,9.03171 0 0 1 4.75889,0.87757a7.99119,6.85239 0 0 1 3.20671,2.43527a8.17881,7.01328 0 0 1 0,7.17417a7.79503,6.68419 0 0 1 -3.24935,2.3987a11.1382,9.55094 0 0 1 -4.90388,0.86295l-6.29402,0zm10.23418,9.63869l-8.52848,-10.07017l5.56057,-1.29442l10.12331,11.36459l-7.1554,0zm20.66451,0.36566a11.99104,10.28225 0 0 1 -5.96994,-1.2286a10.35358,8.87813 0 0 1 -4.01691,-3.39329a11.44522,9.81421 0 0 1 -1.44131,-4.95098l0,-14.18014l6.09786,0l0,14.47998a5.4497,4.67308 0 0 0 0.69934,2.41333a4.65655,3.99296 0 0 0 1.91038,1.57232a5.67997,4.87054 0 0 0 2.68647,0.54848a5.5094,4.72428 0 0 0 2.70353,-0.54848a4.69066,4.02222 0 0 0 1.83362,-1.55769a5.50087,4.71696 0 0 0 0.67375,-2.3987l0,-14.50923l6.10639,0l0,14.2094a11.39405,9.77033 0 0 1 -1.43278,4.93636a10.23418,8.77575 0 0 1 -3.97427,3.37866a11.8887,10.19449 0 0 1 -5.87612,1.2286zm16.14441,-0.36566l0,-23.40199l4.32394,0l10.73736,14.37028l-2.20035,0l10.70324,-14.34103l4.35805,0l0,23.40199l-6.06375,0l0,-14.62624l1.08312,0.22671l-6.99335,9.33886l-4.01691,0l-6.95071,-9.33886l1.04047,-0.22671l0,14.62624l-6.02111,-0.02925zm33.14168,0l0,-23.40199l6.06375,0l0,23.40199l-6.06375,0zm4.63097,-18.91173l0,-4.47563l14.75427,0l0,4.47563l-14.75427,0zm0,9.1414l0,-4.34399l13.5944,0l0,4.35131l-13.5944,-0.00731zm0,9.77033l0,-4.50488l14.95043,0l0,4.50488l-14.95043,0zm19.12085,0l0,-23.40199l4.26424,0l1.81657,4.67308l0,18.71428l-6.08081,0.01463zm18.81383,0l-16.07619,-17.65388l1.50954,-5.73349l16.06766,17.65388l-1.50101,5.73349zm0,0l-1.62894,-4.64383l0,-18.74353l6.06375,0l0,23.40199l-4.43481,-0.01463zm7.83767,-18.84591l0,-4.54145l23.18041,0l0,4.54145l-23.18041,0zm8.52848,18.84591l0,-23.05096l6.06375,0l0,23.05096l-6.06375,0zm29.59383,0.39491a14.6434,12.55663 0 0 1 -5.69703,-0.92877a14.19992,12.17635 0 0 1 -4.57979,-2.58153a13.56881,11.63518 0 0 1 -3.04467,-3.86133a14.74574,12.64439 0 0 1 0,-9.50706a13.72233,11.76681 0 0 1 3.01055,-3.83208a13.92701,11.94233 0 0 1 4.53715,-2.55228a15.78622,13.53659 0 0 1 11.35994,0a14.27668,12.24217 0 0 1 4.55421,2.55228a13.64557,11.70099 0 0 1 3.02761,3.8467a14.81397,12.70289 0 0 1 0,9.50706a13.57734,11.64249 0 0 1 -3.01055,3.83939a13.8332,11.86188 0 0 1 -4.53715,2.56691a14.43872,12.38111 0 0 1 -5.62027,0.95071zm-0.07676,-4.7389a8.27263,7.09373 0 0 0 4.26424,-0.92145a7.29185,6.25272 0 0 0 2.83998,-2.60347a9.62013,8.2492 0 0 0 1.00636,-3.85402a10.05508,8.62217 0 0 0 -0.57994,-2.99838a7.67563,6.58181 0 0 0 -1.66305,-2.31826a7.2151,6.1869 0 0 0 -2.55854,-1.46262a8.71611,7.47401 0 0 0 -3.30052,-0.51923a8.40908,7.21074 0 0 0 -4.26424,0.91414a7.22362,6.19421 0 0 0 -2.84851,2.49377a9.48367,8.13219 0 0 0 -1.00636,3.86133a10.23418,8.77575 0 0 0 0.57994,3.01301a7.94854,6.81583 0 0 0 1.63747,2.33289a7.17245,6.15034 0 0 0 2.55854,1.5065a8.67347,7.43744 0 0 0 3.33464,0.5558zm25.76454,4.70965a13.94407,11.95695 0 0 1 -5.77378,-0.94339a13.56881,11.63518 0 0 1 -4.42628,-2.86674l3.94016,-3.34941a9.87598,8.46859 0 0 0 2.91674,2.0038a7.97413,6.83777 0 0 0 3.72695,0.73131a5.39853,4.62921 0 0 0 2.9935,-0.59968a2.19182,1.87947 0 0 0 1.06606,-1.65277a2.46473,2.11349 0 0 0 -0.69934,-1.55769a5.96994,5.11919 0 0 0 -1.83362,-1.02384c-0.75903,-0.29252 -1.59483,-0.56311 -2.5159,-0.8337s-1.81657,-0.56311 -2.72059,-0.90683a11.34288,9.72645 0 0 1 -2.49032,-1.29442a6.82278,5.8505 0 0 1 -1.83362,-1.9526a7.67563,6.58181 0 0 1 3.89752,-9.04633a12.34071,10.58209 0 0 1 4.98916,-0.81176a13.34707,11.44504 0 0 1 5.22796,0.85564a10.79706,9.25841 0 0 1 3.9231,2.35483l-3.94016,3.3421a9.50073,8.14682 0 0 0 -2.49032,-1.62351a6.37078,5.4629 0 0 0 -2.83998,-0.52654a4.54568,3.89789 0 0 0 -2.50737,0.51192a1.91891,1.64545 0 0 0 -0.9296,1.46262a2.18329,1.87216 0 0 0 0.69081,1.46262a6.08081,5.21426 0 0 0 1.83362,0.94339c0.76756,0.26327 1.60335,0.52654 2.5159,0.78982s1.82509,0.57774 2.72059,0.92877a11.54756,9.90197 0 0 1 2.49032,1.3383a7.07011,6.06258 0 0 1 1.83362,2.05499a8.18734,7.0206 0 0 1 0.69934,3.0642a7.41125,6.3551 0 0 1 -2.78028,5.25082q-2.78881,1.8941 -7.68416,1.8941zm21.12505,-6.59644l0,-4.43906l13.64557,0l0,4.43906l-13.64557,0zm38.65961,6.59644a14.86514,12.74677 0 0 1 -5.65438,-0.91414a13.75644,11.79607 0 0 1 -7.59035,-6.42823a14.7031,12.60782 0 0 1 0,-9.50706a13.54323,11.61324 0 0 1 3.01055,-3.83208a14.00377,12.00815 0 0 1 4.53715,-2.53034a16.1103,13.81449 0 0 1 11.43669,0a13.96965,11.97889 0 0 1 4.42628,2.4499l-4.05956,3.5103a7.76092,6.65494 0 0 0 -2.60972,-1.55769a8.90373,7.6349 0 0 0 -3.53079,-0.56311a8.63082,7.40088 0 0 0 -3.26641,0.51192a7.13834,6.12108 0 0 0 -2.55854,1.46262a8.0253,6.88165 0 0 0 -1.66305,2.31826a10.5412,9.03902 0 0 0 0,5.99676a8.11059,6.95478 0 0 0 1.66305,2.31826a7.38566,6.33316 0 0 0 2.55854,1.46262a8.3238,7.13761 0 0 0 3.26641,0.53386a9.30457,7.97862 0 0 0 3.63313,-0.56311a8.0253,6.88165 0 0 0 2.66089,-1.55769l4.09367,3.5103a14.92484,12.79796 0 0 1 -4.50304,2.4499a15.14658,12.9881 0 0 1 -5.85054,0.92877zm24.64731,0a11.93987,10.23837 0 0 1 -5.92729,-1.2286a10.23418,8.77575 0 0 1 -4.01691,-3.39329a11.45375,9.82152 0 0 1 -1.44984,-4.95098l0,-14.18014l6.10639,0l0,14.47998a5.52646,4.7389 0 0 0 0.69081,2.41333a4.65655,3.99296 0 0 0 1.91038,1.57232a5.67997,4.87054 0 0 0 2.68647,0.54848a5.48381,4.70234 0 0 0 2.70353,-0.54848a4.63949,3.97834 0 0 0 1.83362,-1.55769a5.50087,4.71696 0 0 0 0.68228,-2.3987l0,-14.50923l6.09786,0l0,14.2094a11.39405,9.77033 0 0 1 -1.43278,4.93636a10.23418,8.77575 0 0 1 -3.97427,3.37866a11.84606,10.15793 0 0 1 -5.91024,1.2286zm16.14441,-0.36566l0,-23.40199l6.06375,0l0,23.40199l-6.06375,0zm4.63097,-9.63869l0,-3.83939l5.7482,0a3.96574,3.4006 0 0 0 2.80587,-0.79713a3.63313,3.11539 0 0 0 0,-4.24161a3.78665,3.24703 0 0 0 -2.78028,-0.82638l-5.77378,0l0,-4.04416l6.48165,0a10.53267,9.03171 0 0 1 4.75889,0.87757a7.9059,6.77926 0 0 1 3.19818,2.43527a8.12764,6.9694 0 0 1 0,7.17417a7.67563,6.58181 0 0 1 -3.24082,2.3987a11.1382,9.55094 0 0 1 -4.90388,0.86295l-6.29402,0zm10.23418,9.63869l-8.52848,-10.07017l5.56057,-1.29442l10.12331,11.36459l-7.1554,0zm17.31282,0.36566a13.94407,11.95695 0 0 1 -5.77378,-0.94339a13.56881,11.63518 0 0 1 -4.42628,-2.86674l3.94016,-3.34941a9.87598,8.46859 0 0 0 2.91674,2.0038a7.97413,6.83777 0 0 0 3.72695,0.73131a5.39853,4.62921 0 0 0 2.9935,-0.59968a2.19182,1.87947 0 0 0 1.06606,-1.65277a2.46473,2.11349 0 0 0 -0.69934,-1.55769a5.96994,5.11919 0 0 0 -1.83362,-1.02384c-0.75903,-0.29252 -1.59483,-0.56311 -2.5159,-0.8337s-1.81657,-0.56311 -2.72059,-0.90683a11.34288,9.72645 0 0 1 -2.49032,-1.29442a6.82278,5.8505 0 0 1 -1.83362,-1.9526a7.67563,6.58181 0 0 1 3.89752,-9.04633a12.34071,10.58209 0 0 1 4.98916,-0.81176a13.34707,11.44504 0 0 1 5.22796,0.85564a10.79706,9.25841 0 0 1 3.9231,2.35483l-3.94016,3.3421a9.50073,8.14682 0 0 0 -2.49032,-1.62351a6.37078,5.4629 0 0 0 -2.83998,-0.52654a4.54568,3.89789 0 0 0 -2.50737,0.51192a1.91891,1.64545 0 0 0 -0.9296,1.46262a2.18329,1.87216 0 0 0 0.69081,1.46262a6.08081,5.21426 0 0 0 1.83362,0.94339c0.76756,0.26327 1.60335,0.52654 2.55854,0.78982s1.82509,0.57774 2.72059,0.92877a11.54756,9.90197 0 0 1 2.49032,1.3383a7.07011,6.06258 0 0 1 1.83362,2.05499a8.18734,7.0206 0 0 1 0.69934,3.0642a7.41125,6.3551 0 0 1 -2.78028,5.25082q-2.86557,1.8941 -7.7268,1.8941zm27.57258,0.02925a14.67752,12.58588 0 0 1 -5.69703,-0.92877a14.16581,12.14709 0 0 1 -4.57127,-2.58153a13.58587,11.6498 0 0 1 -3.0532,-3.86133a14.74574,12.64439 0 0 1 0,-9.50706a13.72233,11.76681 0 0 1 3.01055,-3.83208a13.92701,11.94233 0 0 1 4.53715,-2.55228a15.78622,13.53659 0 0 1 11.35994,0a14.18286,12.16172 0 0 1 4.55421,2.55228a13.64557,11.70099 0 0 1 3.03614,3.8467a14.81397,12.70289 0 0 1 0,9.50706a13.8332,11.86188 0 0 1 -7.55623,6.40629a14.43872,12.38111 0 0 1 -5.62027,0.95071zm-0.07676,-4.7389a8.3238,7.13761 0 0 0 4.26424,-0.92145a7.39419,6.34048 0 0 0 2.83998,-2.60347a9.72247,8.33696 0 0 0 0.99783,-3.85402a9.85892,8.45397 0 0 0 -0.57994,-2.99838a7.77797,6.66957 0 0 0 -1.65453,-2.31826a7.24921,6.21615 0 0 0 -2.55854,-1.46262a8.71611,7.47401 0 0 0 -3.30052,-0.51923a8.34938,7.15955 0 0 0 -4.26424,0.91414a7.18951,6.16496 0 0 0 -2.83998,2.55228a9.48367,8.13219 0 0 0 -1.00636,3.86133a10.23418,8.77575 0 0 0 0.57994,3.01301a7.82915,6.71345 0 0 0 1.646,2.33289a7.13834,6.12108 0 0 0 2.55854,1.5065a8.70758,7.4667 0 0 0 3.31758,0.49729zm25.76454,4.70965a13.97818,11.98621 0 0 1 -5.77378,-0.94339a13.56881,11.63518 0 0 1 -4.42628,-2.86674l3.94016,-3.34941a9.98685,8.56367 0 0 0 2.91674,2.0038a7.99972,6.85971 0 0 0 3.72695,0.73131a5.39853,4.62921 0 0 0 2.9935,-0.59968a2.19182,1.87947 0 0 0 1.10017,-1.66739a2.43062,2.08424 0 0 0 -0.69934,-1.55769a5.96994,5.11919 0 0 0 -1.83362,-1.02384c-0.75903,-0.29252 -1.59483,-0.56311 -2.50737,-0.8337s-1.82509,-0.56311 -2.72059,-0.90683a11.34288,9.72645 0 0 1 -2.49032,-1.29442a6.82278,5.8505 0 0 1 -1.84215,-1.9526a7.67563,6.58181 0 0 1 3.87193,-9.03171a12.32366,10.56746 0 0 1 4.98063,-0.81176a13.4153,11.50354 0 0 1 5.23649,0.85564a10.76294,9.22916 0 0 1 3.91457,2.35483l-3.94016,3.3421a9.38133,8.04443 0 0 0 -2.49032,-1.62351a6.37078,5.4629 0 0 0 -2.83998,-0.52654a4.58832,3.93446 0 0 0 -2.50737,0.51192a1.91891,1.64545 0 0 0 -0.9296,1.46262a2.16623,1.85753 0 0 0 0.69934,1.46262a5.96994,5.11919 0 0 0 1.83362,0.94339q1.14282,0.39491 2.50737,0.78982c0.91255,0.27059 1.82509,0.57774 2.72911,0.92877a11.75225,10.07748 0 0 1 2.49032,1.3383a7.07011,6.06258 0 0 1 1.83362,2.05499a8.31527,7.13029 0 0 1 0.69081,3.0642a7.38566,6.33316 0 0 1 -2.78028,5.25082q-2.77176,1.8941 -7.68416,1.8941z" class="cls-1"/>
  <path transform="rotate(1.23064 48.2353 142.375)" stroke="null" id="svg_2" fill-rule="evenodd" fill="#ffffff" d="m28.45932,99.15975c-2.9539,-0.04788 -5.61241,4.5106 -5.28748,11.49197c0.38401,8.20718 6.33119,16.53886 6.33119,24.46832c0,6.78984 -10.64389,14.15427 -10.54542,28.10744c0.09846,15.89722 8.27092,24.62154 30.67133,24.62154s27.88482,-10.40981 27.88482,-23.9416c0,-12.44963 -8.25123,-16.61547 -8.25123,-25.92396c0,-9.78733 5.33671,-14.25004 6.33119,-19.72788c1.17171,-6.48339 -2.52066,-9.43299 -5.2481,-8.40829c-2.4222,0.95766 -1.31941,7.05798 -9.76756,7.23036c-4.05669,0.08619 -7.04998,-3.61039 -7.04998,-12.76566s-9.49187,-10.15124 -10.06295,-1.16835c-0.17723,2.66231 -1.04371,7.79539 -6.70535,7.82411c-6.30165,0.00958 -4.53916,-11.70265 -8.30046,-11.808z" class="cls-2"/>
  <path id="svg_3" fill-rule="evenodd" fill="#fff" d="m43.61069,128.68929l10.65,0l-1.85,-89.64l-6.96,0l-1.84,89.64z" class="cls-2"/>
  <path id="svg_4" fill-rule="evenodd" fill="#fff" d="m59.57069,35.86929a61.86,61.86 0 0 1 0.76,-17.27c1.67,-8.41 -0.47,-13.15 -5.12,-2.27l-11.14,26.12c-0.44,1 -1.17,1.46 0.31,3.55a4.71,4.71 0 0 1 1,2.35l7.09,0c0,-1.18 1.37,-4.32 3.87,-6.42c1.54,-1.3 3.39,-4.22 3.23,-6.06z" class="cls-2"/>
  <text transform="rotate(0.25093 594.155 89.8107) matrix(3.25815 0 0 4.18647 -1113.31 -267.729)" stroke="#000" font-weight="bold" xml:space="preserve" text-anchor="start" font-family="'Arimo'" font-size="24" id="svg_18" y="93.66777" x="482.94385" stroke-width="0" fill="#ff7f00">STORE</text>
 </g>
</svg>